<svg width="371" height="88" viewBox="0 0 371 88" fill="none" xmlns="http://www.w3.org/2000/svg">
<g clip-path="url(#clip0_8_216)">
<g clip-path="url(#clip1_8_216)">
<g clip-path="url(#clip2_8_216)">
<g clip-path="url(#clip3_8_216)">
<path d="M142.913 7.00455H139.841C139.838 7.00455 139.836 7.00695 139.836 7.00992V80.9901C139.836 80.993 139.838 80.9954 139.841 80.9954H142.913C142.916 80.9954 142.918 80.993 142.918 80.9901V7.00992C142.918 7.00695 142.916 7.00455 142.913 7.00455Z" fill="#FFEC86"/>
<path d="M150.031 7.00455H146.959C146.956 7.00455 146.954 7.00695 146.954 7.00992V80.9901C146.954 80.993 146.956 80.9954 146.959 80.9954H150.031C150.034 80.9954 150.036 80.993 150.036 80.9901V7.00992C150.036 7.00695 150.034 7.00455 150.031 7.00455Z" fill="#FFEC86"/>
<g clip-path="url(#clip4_8_216)">
<g clip-path="url(#clip5_8_216)">
<g clip-path="url(#clip6_8_216)">
<g clip-path="url(#clip7_8_216)">
<path d="M189.478 16.0233V35.5983C189.478 36.6957 189.536 37.5818 189.651 38.2574C189.767 38.9391 189.992 39.4587 190.327 39.8165C190.655 40.1802 191.131 40.434 191.754 40.5787C192.372 40.7233 193.185 40.8099 194.195 40.8385V42.4842H180.175V40.8385C181.185 40.8099 182.001 40.7233 182.624 40.5787C183.241 40.434 183.723 40.1889 184.069 39.8425C184.416 39.496 184.647 39.0049 184.762 38.37C184.877 37.7351 184.935 36.9123 184.935 35.9015V26.5037H167.41V35.5983C167.41 36.6957 167.468 37.5818 167.583 38.2574C167.698 38.9391 167.923 39.4587 168.258 39.8165C168.587 40.1802 169.063 40.434 169.686 40.5787C170.303 40.7233 171.117 40.8099 172.127 40.8385V42.4842H158.107V40.8385C159.116 40.8099 159.933 40.7233 160.556 40.5787C161.173 40.434 161.655 40.1889 162.001 39.8425C162.347 39.496 162.578 39.0049 162.693 38.37C162.808 37.7351 162.866 36.9123 162.866 35.9015V15.7202C162.866 14.7094 162.817 13.8926 162.719 13.269C162.615 12.6514 162.414 12.1603 162.113 11.7965C161.808 11.4388 161.367 11.1963 160.789 11.0689C160.212 10.9364 159.463 10.8411 158.539 10.7831V9.13742H171.694V10.7831C170.77 10.8117 170.03 10.8983 169.47 11.043C168.905 11.1876 168.472 11.4474 168.171 11.8225C167.866 12.1975 167.663 12.7172 167.566 13.3816C167.462 14.0459 167.41 14.9259 167.41 16.0233V24.3384H184.935V15.7202C184.935 14.7094 184.886 13.8926 184.788 13.269C184.684 12.6514 184.482 12.1603 184.182 11.7965C183.876 11.4388 183.435 11.1963 182.858 11.0689C182.281 10.9364 181.531 10.8411 180.608 10.7831V9.13742H193.762V10.7831C192.839 10.8117 192.098 10.8983 191.538 11.043C190.973 11.1876 190.54 11.4474 190.24 11.8225C189.934 12.1975 189.732 12.7172 189.634 13.3816C189.53 14.0459 189.478 14.9259 189.478 16.0233ZM216.047 8.70435C218.585 8.70435 220.952 9.15214 223.144 10.0469C225.336 10.9416 227.24 12.1689 228.856 13.728C230.471 15.2871 231.74 17.1207 232.663 19.2281C233.587 21.3354 234.048 23.6169 234.048 26.0707C234.048 28.4093 233.581 30.6032 232.646 32.6534C231.705 34.7036 230.428 36.4844 228.812 37.9976C227.197 39.5159 225.293 40.7147 223.1 41.5921C220.908 42.4756 218.557 42.9173 216.047 42.9173C213.537 42.9173 211.186 42.4756 208.994 41.5921C206.802 40.7147 204.898 39.5159 203.282 37.9976C201.666 36.4844 200.389 34.7036 199.448 32.6534C198.514 30.6032 198.046 28.4093 198.046 26.0707C198.046 23.6169 198.507 21.3354 199.431 19.2281C200.354 17.1207 201.623 15.2871 203.239 13.728C204.855 12.1689 206.758 10.9416 208.951 10.0469C211.143 9.15214 213.509 8.70435 216.047 8.70435ZM216.047 40.5354C217.951 40.5354 219.662 40.2036 221.179 39.5393C222.691 38.875 223.989 37.9222 225.074 36.681C226.153 35.4398 226.98 33.9292 227.557 32.151C228.135 30.378 228.423 28.3945 228.423 26.2006C228.423 23.8906 228.135 21.8031 227.557 19.9383C226.98 18.0787 226.158 16.491 225.091 15.1745C224.024 13.864 222.726 12.8558 221.196 12.1516C219.667 11.4414 217.951 11.0863 216.047 11.0863C214.143 11.0863 212.427 11.4414 210.898 12.1516C209.369 12.8558 208.07 13.864 207.003 15.1745C205.936 16.491 205.114 18.0787 204.537 19.9383C203.96 21.8031 203.671 23.8906 203.671 26.2006C203.671 28.3945 203.96 30.378 204.537 32.151C205.114 33.9292 205.936 35.4398 207.003 36.681C208.07 37.9222 209.369 38.875 210.898 39.5393C212.427 40.2036 214.143 40.5354 216.047 40.5354ZM259.578 34.7322H259.751L271.002 9.13742H280.695V10.7831C279.772 10.8117 279.027 10.9278 278.462 11.1296C277.902 11.3314 277.469 11.6726 277.164 12.1516C276.864 12.6254 276.665 13.2802 276.567 14.1178C276.463 14.9554 276.411 16.0233 276.411 17.3225V34.2991C276.411 35.743 276.469 36.8828 276.584 37.7204C276.699 38.558 276.922 39.2076 277.251 39.6692C277.585 40.1309 278.061 40.434 278.678 40.5787C279.302 40.7233 280.118 40.8099 281.128 40.8385V42.4842H267.108V40.8385C268.118 40.8099 268.931 40.7147 269.548 40.5527C270.171 40.3968 270.656 40.1023 271.002 39.6692C271.348 39.2361 271.579 38.6212 271.694 37.8243C271.81 37.0335 271.868 35.9595 271.868 34.6022V14.5076H271.435L258.799 42.9173H257.848L245.429 14.5076H245.255V34.2991C245.255 35.743 245.313 36.8828 245.429 37.7204C245.544 38.558 245.766 39.2076 246.095 39.6692C246.43 40.1309 246.906 40.434 247.523 40.5787C248.146 40.7233 248.962 40.8099 249.972 40.8385V42.4842H237.899V40.8385C238.909 40.8099 239.723 40.7147 240.34 40.5527C240.963 40.3968 241.448 40.1023 241.794 39.6692C242.14 39.2361 242.371 38.6212 242.486 37.8243C242.601 37.0335 242.659 35.9595 242.659 34.6022V17.0194C242.659 15.8068 242.607 14.802 242.503 14.0052C242.406 13.2144 242.203 12.5873 241.898 12.1256C241.597 11.664 241.159 11.3374 240.582 11.1469C240.005 10.9624 239.255 10.8411 238.332 10.7831V9.13742H248.674L259.578 34.7322ZM294.369 11.7359V24.1651C295.927 24.1651 297.231 24.0699 298.281 23.8793C299.336 23.6948 300.176 23.4003 300.799 22.9958C301.416 22.5913 301.861 22.0716 302.132 21.4368C302.409 20.8019 302.547 20.0509 302.547 19.1848H304.062V31.0077H302.547C302.547 30.1416 302.423 29.3906 302.175 28.7557C301.933 28.1208 301.5 27.5925 300.877 27.1707C300.26 26.7549 299.423 26.437 298.367 26.2179C297.317 26.004 295.985 25.8974 294.369 25.8974V35.6849C294.369 36.6377 294.484 37.4233 294.715 38.0409C294.946 38.6645 295.341 39.1695 295.901 39.5566C296.466 39.949 297.21 40.2236 298.133 40.3795C299.057 40.5414 300.196 40.622 301.552 40.622C303.081 40.622 304.379 40.512 305.446 40.2929C306.513 40.0789 307.408 39.7125 308.129 39.1928C308.85 38.6731 309.427 37.9863 309.86 37.1314C310.293 36.2826 310.654 35.2233 310.942 33.9526H312.586L311.937 42.4842H285.065V40.8385C286.075 40.8099 286.889 40.7233 287.506 40.5787C288.129 40.434 288.614 40.1889 288.96 39.8425C289.306 39.496 289.537 39.0049 289.652 38.37C289.767 37.7351 289.825 36.9123 289.825 35.9015V15.7202C289.825 14.7094 289.773 13.8926 289.669 13.269C289.572 12.6514 289.369 12.1603 289.064 11.7965C288.763 11.4388 288.325 11.1963 287.748 11.0689C287.171 10.9364 286.421 10.8411 285.498 10.7831V9.13742H310.509L310.898 16.7595H309.384C309.211 15.605 308.928 14.6574 308.536 13.9186C308.149 13.1849 307.616 12.602 306.935 12.1689C306.26 11.7359 305.403 11.4327 304.364 11.2595C303.326 11.0863 302.071 10.9996 300.6 10.9996H295.104C294.614 10.9996 294.369 11.2448 294.369 11.7359Z" fill="#FFEC86"/>
<path d="M186.709 70.764L186.06 79.2956H158.107V77.6499C159.116 77.6213 159.933 77.5347 160.556 77.39C161.173 77.2454 161.655 77.0003 162.001 76.6538C162.347 76.3074 162.578 75.8163 162.693 75.1814C162.808 74.5465 162.866 73.7236 162.866 72.7128V52.5315C162.866 51.5207 162.817 50.704 162.719 50.0803C162.615 49.4628 162.414 48.9717 162.113 48.6079C161.808 48.2502 161.367 48.0076 160.789 47.8803C160.212 47.7478 159.463 47.6525 158.539 47.5945V45.9488H171.694V47.5945C170.77 47.6231 170.03 47.7097 169.47 47.8543C168.905 47.999 168.472 48.2588 168.171 48.6339C167.866 49.0089 167.663 49.5286 167.566 50.1929C167.462 50.8573 167.41 51.7373 167.41 52.8347V71.5002C167.41 72.7128 167.534 73.7002 167.782 74.4625C168.024 75.2307 168.442 75.8223 169.037 76.2381C169.625 76.6599 170.41 76.9483 171.391 77.1042C172.371 77.2662 173.612 77.3467 175.112 77.3467C176.757 77.3467 178.141 77.2515 179.266 77.0609C180.391 76.8764 181.337 76.5438 182.105 76.0648C182.867 75.5911 183.472 74.9276 183.922 74.0727C184.366 73.2239 184.747 72.1213 185.065 70.764H186.709ZM198.868 54.1339V71.1105C198.868 72.5543 198.926 73.6942 199.041 74.5318C199.157 75.3693 199.382 76.0189 199.716 76.4806C200.045 76.9422 200.521 77.2454 201.144 77.39C201.761 77.5347 202.575 77.6213 203.585 77.6499V79.2956H189.565V77.6499C190.575 77.6213 191.391 77.526 192.014 77.3641C192.631 77.2082 193.113 76.9137 193.459 76.4806C193.806 76.0475 194.037 75.4325 194.152 74.6357C194.267 73.8449 194.325 72.7709 194.325 71.4136V53.8308C194.325 52.6181 194.276 51.6134 194.178 50.8166C194.074 50.0258 193.872 49.3987 193.572 48.937C193.266 48.4754 192.825 48.1488 192.248 47.9583C191.671 47.7738 190.921 47.6525 189.998 47.5945V45.9488H203.152V47.5945C202.229 47.6231 201.488 47.7391 200.928 47.9409C200.363 48.1427 199.93 48.484 199.63 48.963C199.324 49.4368 199.122 50.0916 199.024 50.9292C198.92 51.7667 198.868 52.8347 198.868 54.1339ZM222.798 79.2956H207.22V77.6499C208.345 77.6213 209.247 77.5347 209.929 77.39C210.604 77.2454 211.123 77.0003 211.486 76.6538C211.844 76.3074 212.09 75.8163 212.222 75.1814C212.349 74.5465 212.412 73.7236 212.412 72.7128V52.5315C212.412 51.5207 212.363 50.704 212.265 50.0803C212.161 49.4628 211.96 48.9717 211.659 48.6079C211.354 48.2502 210.913 48.0076 210.335 47.8803C209.758 47.7478 209.009 47.6525 208.085 47.5945V45.9488H221.023C224.918 45.9488 227.947 46.6417 230.11 48.0276C232.274 49.4134 233.356 51.3622 233.356 53.8741C233.356 55.7796 232.759 57.3387 231.564 58.5513C230.364 59.7639 228.466 60.76 225.87 61.5395V61.7127C226.764 61.7993 227.543 61.9007 228.206 62.0159C228.87 62.1311 229.461 62.2671 229.981 62.423C230.5 62.5849 230.982 62.7807 231.426 63.012C231.876 63.2432 232.317 63.5031 232.75 63.7915C235.318 65.6104 236.601 67.891 236.601 70.6341C236.601 72.1646 236.175 73.585 235.32 74.8955C234.472 76.2121 233.284 77.2454 231.755 77.9964C231.264 78.2562 230.76 78.4641 230.24 78.62C229.721 78.782 229.115 78.9119 228.423 79.0097C227.73 79.1137 226.928 79.1856 226.017 79.2263C225.111 79.2722 224.038 79.2956 222.798 79.2956ZM222.927 77.4334C228.149 77.4334 230.76 75.1961 230.76 70.7207C230.76 67.4579 229.418 65.1773 226.735 63.8781C226.274 63.6763 225.827 63.5031 225.394 63.3584C224.961 63.2138 224.457 63.1046 223.879 63.0293C223.302 62.96 222.618 62.9106 221.828 62.882C221.032 62.8534 220.057 62.8387 218.903 62.8387H216.956V72.4963C216.956 74.2572 217.417 75.5192 218.341 76.2814C219.264 77.0497 220.792 77.4334 222.927 77.4334ZM216.956 60.6733H219.379C220.273 60.6733 221.023 60.6586 221.629 60.63C222.235 60.6015 222.754 60.5495 223.187 60.4741C223.62 60.4048 224.003 60.3035 224.338 60.171C224.667 60.0437 225.004 59.8652 225.351 59.634C226.274 59.0562 226.928 58.3633 227.315 57.5552C227.707 56.7471 227.904 55.693 227.904 54.3938C227.904 52.1132 227.347 50.4727 226.233 49.474C225.126 48.4805 223.389 47.9842 221.023 47.9842H217.691C217.201 47.9842 216.956 48.2294 216.956 48.7205V60.6733ZM266.978 54.3071C266.978 56.6172 266.285 58.5366 264.901 60.067C263.516 61.5975 261.309 62.6222 258.28 63.1419L267.843 74.6617C268.622 75.6144 269.482 76.2987 270.422 76.7145C271.357 77.1363 272.473 77.4481 273.771 77.6499V79.2956H265.42L254.819 65.697C254.444 65.2059 254.092 64.8161 253.763 64.5277C253.428 64.2393 253.082 64.0167 252.724 63.8608C252.361 63.6988 251.943 63.5949 251.469 63.549C250.991 63.5083 250.42 63.4883 249.756 63.4883V72.4963C249.756 73.5643 249.822 74.4365 249.955 75.1121C250.082 75.7937 250.355 76.3221 250.777 76.6971C251.192 77.0722 251.798 77.3234 252.594 77.4507C253.384 77.5832 254.429 77.6499 255.727 77.6499V79.2956H240.452V77.6499C241.462 77.6213 242.278 77.5347 242.902 77.39C243.519 77.2454 244.001 77.0003 244.347 76.6538C244.693 76.3074 244.924 75.8163 245.039 75.1814C245.154 74.5465 245.212 73.7236 245.212 72.7128V52.5315C245.212 51.5207 245.163 50.704 245.065 50.0803C244.961 49.4628 244.76 48.9717 244.459 48.6079C244.154 48.2502 243.712 48.0076 243.135 47.8803C242.558 47.7478 241.808 47.6525 240.885 47.5945V45.9488H254.472C258.453 45.9488 261.534 46.685 263.715 48.1575C265.89 49.6299 266.978 51.6801 266.978 54.3071ZM249.756 48.7205V61.323H252.828C255.713 61.323 257.856 60.7946 259.258 59.7379C260.654 58.6873 261.353 56.9489 261.353 54.5237C261.353 52.1851 260.799 50.5108 259.691 49.5C258.577 48.4892 256.838 47.9842 254.472 47.9842H250.491C250.001 47.9842 249.756 48.2294 249.756 48.7205ZM295.494 71.89L293.72 67.2128H282.166C281.675 68.3968 281.257 69.4414 280.911 70.3482C280.565 71.2603 280.286 72.0485 280.072 72.7128C279.853 73.3772 279.7 73.9402 279.613 74.4018C279.527 74.8635 279.483 75.2394 279.483 75.5278C279.483 76.3359 279.743 76.8903 280.262 77.1908C280.781 77.4966 281.647 77.6499 282.859 77.6499V79.2956H272.344V77.6499C273.007 77.5633 273.578 77.4481 274.057 77.3034C274.53 77.1588 274.948 76.957 275.312 76.6971C275.669 76.4373 275.987 76.0995 276.264 75.6837C276.535 75.2619 276.8 74.7483 277.06 74.142L288.311 45.9488H290.171L299.994 70.3742C300.658 71.9913 301.234 73.2819 301.725 74.2459C302.216 75.216 302.692 75.9462 303.153 76.4373C303.614 76.9284 304.114 77.2454 304.65 77.39C305.181 77.5347 305.821 77.6066 306.571 77.6066V79.2956H292.465V77.6066C293.994 77.6066 295.046 77.4619 295.624 77.1735C296.201 76.8851 296.489 76.4087 296.489 75.7444C296.489 75.4559 296.474 75.1874 296.446 74.9388C296.417 74.6963 296.368 74.4304 296.299 74.142C296.223 73.8536 296.123 73.527 295.996 73.1632C295.863 72.8055 295.695 72.3811 295.494 71.89ZM288.094 52.2717L283.032 65.0474H292.898L288.094 52.2717ZM334.482 54.3071C334.482 56.6172 333.789 58.5366 332.404 60.067C331.02 61.5975 328.813 62.6222 325.784 63.1419L335.347 74.6617C336.126 75.6144 336.985 76.2987 337.926 76.7145C338.861 77.1363 339.977 77.4481 341.275 77.6499V79.2956H332.924L322.322 65.697C321.947 65.2059 321.595 64.8161 321.266 64.5277C320.931 64.2393 320.585 64.0167 320.228 63.8608C319.864 63.6988 319.446 63.5949 318.973 63.549C318.494 63.5083 317.923 63.4883 317.259 63.4883V72.4963C317.259 73.5643 317.326 74.4365 317.458 75.1121C317.586 75.7937 317.859 76.3221 318.281 76.6971C318.696 77.0722 319.302 77.3234 320.098 77.4507C320.888 77.5832 321.933 77.6499 323.231 77.6499V79.2956H307.956V77.6499C308.966 77.6213 309.779 77.5347 310.397 77.39C311.02 77.2454 311.504 77.0003 311.85 76.6538C312.197 76.3074 312.428 75.8163 312.543 75.1814C312.658 74.5465 312.716 73.7236 312.716 72.7128V52.5315C312.716 51.5207 312.664 50.704 312.56 50.0803C312.462 49.4628 312.263 48.9717 311.963 48.6079C311.657 48.2502 311.216 48.0076 310.639 47.8803C310.062 47.7478 309.312 47.6525 308.389 47.5945V45.9488H321.976C325.957 45.9488 329.038 46.685 331.219 48.1575C333.394 49.6299 334.482 51.6801 334.482 54.3071ZM317.259 48.7205V61.323H320.332C323.216 61.323 325.36 60.7946 326.762 59.7379C328.158 58.6873 328.856 56.9489 328.856 54.5237C328.856 52.1851 328.302 50.5108 327.195 49.5C326.081 48.4892 324.341 47.9842 321.976 47.9842H317.995C317.504 47.9842 317.259 48.2294 317.259 48.7205ZM352.18 66.1301L343.525 51.3189C343.093 50.568 342.688 49.953 342.314 49.474C341.939 49.0002 341.558 48.6191 341.171 48.3307C340.779 48.0423 340.366 47.8457 339.934 47.7417C339.501 47.6438 338.982 47.5945 338.376 47.5945V45.9488H352.007V47.5945C350.564 47.5945 349.549 47.701 348.96 47.915C348.366 48.1341 348.069 48.5187 348.069 49.0669C348.069 49.6732 348.4 50.5394 349.064 51.6654L355.771 63.1419H355.944L360.834 54.9134C361.757 53.3544 362.415 52.127 362.807 51.2323C363.194 50.3376 363.387 49.6152 363.387 49.0669C363.387 48.5187 363.179 48.1341 362.764 47.915C362.342 47.701 361.613 47.5945 360.574 47.5945V45.9488H370.483V47.5945C369.878 47.5945 369.339 47.6811 368.865 47.8543C368.387 48.0276 367.887 48.374 367.368 48.8937C366.849 49.4134 366.28 50.1349 365.663 51.0591C365.04 51.9833 364.281 53.1959 363.387 54.6969L356.723 65.9569V71.1105C356.723 72.5249 356.775 73.6569 356.879 74.5058C356.977 75.3607 357.193 76.0189 357.528 76.4806C357.857 76.9422 358.333 77.2515 358.956 77.4074C359.573 77.5693 360.401 77.6499 361.44 77.6499V79.2956H347.42V77.6499C348.458 77.6499 349.289 77.5693 349.912 77.4074C350.529 77.2515 351.005 76.9483 351.34 76.4979C351.669 76.0536 351.891 75.4265 352.007 74.6184C352.122 73.8102 352.18 72.7414 352.18 71.4136V66.1301Z" fill="#FFEC86"/>
</g>
</g>
</g>
</g>
<g clip-path="url(#clip8_8_216)">
<g clip-path="url(#clip9_8_216)">
<path d="M103.983 0.404926C100.441 0.129513 96.6138 -0.0611572 92.805 -0.0611572C78.6351 -0.0611572 69.6895 2.50654 66.1403 7.57838C62.5926 2.50654 53.6469 -0.0611572 39.4756 -0.0611572C35.6668 -0.0611572 31.8396 0.129513 28.2975 0.404926V0.392214C28.1338 0.410575 27.9616 0.420461 27.7852 0.421874C27.5044 0.471307 27.2137 0.506618 26.899 0.506618C26.8665 0.506618 26.8355 0.503791 26.803 0.500966C26.5067 0.553224 26.1962 0.585711 25.8646 0.585711C25.7658 0.585711 25.6712 0.577236 25.5767 0.571587C25.3848 0.606896 25.1858 0.630906 24.9812 0.646442C24.7638 0.688813 24.5352 0.714237 24.2981 0.72836V0.759432C17.1123 1.47268 11.8683 2.39496 11.7836 2.4105L11.3235 2.49242L10.0535 4.06863H0.516541V88.0611L1.84307 87.9778C2.05899 87.9637 23.6137 86.6121 32.0583 85.6714L32.4662 85.6248C40.9927 84.6771 51.6077 83.4921 56.1575 87.1982L56.5018 87.4792H75.776L76.1218 87.1982C80.7364 83.4399 91.9625 84.7265 100.159 85.6658L100.217 85.67C108.661 86.6389 130.22 87.9637 130.438 87.9778L131.766 88.0597V4.06863H122.231L120.959 2.49242L120.498 2.4105C120.414 2.39355 115.17 1.47268 107.982 0.759432M7.89008 10.7308L11.0018 6.8736V72.1183L7.89008 77.3116V10.7308ZM62.6716 79.9174C61.8884 79.6519 53.5538 76.9246 41.6531 76.9246C37.7836 76.9246 33.9282 77.2212 30.1956 77.8045C18.0225 79.707 11.5239 80.0883 8.535 80.125L12.4045 73.669L12.4172 73.6916C12.4821 73.6634 19.0908 70.7596 41.1169 70.7059C55.2585 70.672 61.2801 76.4543 63.6947 80.1886L62.6716 79.9174ZM64.8914 78.4019C61.9349 74.2707 55.3418 68.7031 41.2411 68.7031H41.1126C23.9623 68.7455 15.9551 70.4969 13.0029 71.3782V4.74233C16.0906 4.23811 27.8755 2.44016 39.4756 2.44016C54.0844 2.44016 62.8593 5.23101 64.8914 10.5105V78.4019ZM67.3906 10.5105C69.42 5.23101 78.1976 2.44016 92.805 2.44016C104.407 2.44016 116.193 4.23811 119.281 4.74233V71.3584C116.245 70.4969 108.227 68.8288 91.2908 68.7046C91.1483 68.7031 91.0128 68.7017 90.8717 68.7017C76.6129 68.7017 70.2074 74.0631 67.3906 78.183V10.5105ZM102.085 77.8045C98.351 77.2212 94.497 76.9246 90.6289 76.9246C78.7283 76.9246 70.3923 79.6533 69.6105 79.9174L68.5182 80.2027C70.7352 76.4712 76.5691 70.5844 91.2753 70.7045C111.544 70.8528 118.846 73.2693 119.866 73.6493L123.748 80.1236C120.745 80.0855 114.262 79.707 102.085 77.8045ZM124.392 77.3116L121.279 72.1183V6.8736L124.392 10.7308V77.3116Z" fill="#FFEC86"/>
<path d="M60.5717 16.9777C50.3772 8.64613 18.563 14.2857 18.2441 14.3436L17.9266 12.3338C19.2672 12.0909 50.881 6.49225 61.7219 15.3577L60.5717 16.9777Z" fill="#FFEC86"/>
<path d="M60.5717 21.4564C50.3772 13.1248 18.563 18.7644 18.2441 18.8223L17.9266 16.8125C19.2672 16.5695 50.881 10.9723 61.7219 19.8364L60.5717 21.4564Z" fill="#FFEC86"/>
<path d="M60.5717 25.935C50.3772 17.602 18.563 23.243 18.2441 23.2995L17.9266 21.2897C19.2672 21.0468 50.881 15.4495 61.7219 24.3136L60.5717 25.935Z" fill="#FFEC86"/>
<path d="M60.5717 30.4136C50.3772 22.0806 18.563 27.7202 18.2441 27.7781L17.9266 25.7683C19.2672 25.5254 50.881 19.9282 61.7219 28.7922L60.5717 30.4136Z" fill="#FFEC86"/>
<path d="M60.5717 34.8909C50.3772 26.5593 18.563 32.1989 18.2441 32.2554L17.9266 30.2456C19.2672 30.0026 50.881 24.4054 61.7219 33.2695L60.5717 34.8909Z" fill="#FFEC86"/>
<path d="M60.5717 39.3695C50.3772 31.0379 18.563 36.6775 18.2441 36.734L17.9266 34.7242C19.2672 34.4813 50.881 28.884 61.7219 37.7481L60.5717 39.3695Z" fill="#FFEC86"/>
<path d="M60.5717 43.8482C50.3772 35.5152 18.563 41.1562 18.2441 41.2127L17.9266 39.2029C19.2672 38.9614 50.881 33.3641 61.7219 42.2282L60.5717 43.8482Z" fill="#FFEC86"/>
<path d="M60.5717 48.3268C50.3772 39.9938 18.563 45.6334 18.2441 45.6913L17.9266 43.6815C19.2672 43.4386 50.881 37.8427 61.7219 46.7068L60.5717 48.3268Z" fill="#FFEC86"/>
<path d="M60.5717 52.8054C50.3772 44.4724 18.563 50.1135 18.2441 50.17L17.9266 48.1601C19.2672 47.9172 50.881 42.3214 61.7219 51.1854L60.5717 52.8054Z" fill="#FFEC86"/>
<path d="M60.5717 57.2841C50.3772 48.951 18.563 54.5907 18.2441 54.6486L17.9266 52.6388C19.2672 52.3958 50.881 46.7986 61.7219 55.6627L60.5717 57.2841Z" fill="#FFEC86"/>
<path d="M60.5717 61.7613C50.3772 53.4311 18.563 59.0693 18.2441 59.1272L17.9266 57.1174C19.2672 56.8745 50.881 51.2773 61.7219 60.1413L60.5717 61.7613Z" fill="#FFEC86"/>
<path d="M60.5717 66.2414C50.3772 57.9084 18.563 63.5494 18.2441 63.6059L17.9266 61.5961C19.2672 61.3531 50.881 55.7559 61.7219 64.62L60.5717 66.2414Z" fill="#FFEC86"/>
<path d="M71.8966 16.9777C82.0912 8.64613 113.905 14.2857 114.224 14.3436L114.542 12.3338C113.201 12.0909 81.5874 6.49225 70.7465 15.3577L71.8966 16.9777Z" fill="#FFEC86"/>
<path d="M71.8966 21.4564C82.0912 13.1248 113.905 18.7644 114.224 18.8223L114.542 16.8125C113.201 16.5695 81.5874 10.9723 70.7465 19.8364L71.8966 21.4564Z" fill="#FFEC86"/>
<path d="M71.8966 25.935C82.0912 17.602 113.905 23.243 114.224 23.2995L114.542 21.2897C113.201 21.0468 81.5874 15.4495 70.7465 24.3136L71.8966 25.935Z" fill="#FFEC86"/>
<path d="M71.8966 30.4136C82.0912 22.0806 113.905 27.7202 114.224 27.7781L114.542 25.7683C113.201 25.5254 81.5874 19.9282 70.7465 28.7922L71.8966 30.4136Z" fill="#FFEC86"/>
<path d="M71.8966 34.8909C82.0912 26.5593 113.905 32.1989 114.224 32.2554L114.542 30.2456C113.201 30.0026 81.5874 24.4054 70.7465 33.2695L71.8966 34.8909Z" fill="#FFEC86"/>
<path d="M71.8966 39.3695C82.0912 31.0379 113.905 36.6789 114.224 36.7354L114.542 34.7256C113.201 34.4827 81.5874 28.8854 70.7465 37.7495L71.8966 39.3695Z" fill="#FFEC86"/>
<path d="M71.8966 43.8482C82.0912 35.5152 113.905 41.1562 114.224 41.2127L114.542 39.2029C113.201 38.9614 81.5874 33.3641 70.7465 42.2282L71.8966 43.8482Z" fill="#FFEC86"/>
<path d="M71.8966 48.3268C82.0912 39.9938 113.905 45.6334 114.224 45.6913L114.542 43.6815C113.201 43.4386 81.5874 37.8427 70.7465 46.7068L71.8966 48.3268Z" fill="#FFEC86"/>
<path d="M71.8966 52.8054C82.0912 44.4724 113.905 50.1135 114.224 50.17L114.542 48.1601C113.201 47.9172 81.5874 42.3214 70.7465 51.1854L71.8966 52.8054Z" fill="#FFEC86"/>
<path d="M71.8966 57.2841C82.0912 48.951 113.905 54.5907 114.224 54.6486L114.542 52.6388C113.201 52.3958 81.5874 46.7986 70.7465 55.6627L71.8966 57.2841Z" fill="#FFEC86"/>
<path d="M71.8966 61.7613C82.0912 53.4311 113.905 59.0693 114.224 59.1272L114.542 57.1174C113.201 56.8745 81.5874 51.2773 70.7465 60.1413L71.8966 61.7613Z" fill="#FFEC86"/>
<path d="M71.8966 66.2414C82.0912 57.9084 113.905 63.5494 114.224 63.6059L114.542 61.5961C113.201 61.3531 81.5874 55.7559 70.7465 64.62L71.8966 66.2414Z" fill="#FFEC86"/>
</g>
</g>
</g>
</g>
</g>
</g>
<defs>
<clipPath id="clip0_8_216">
<rect width="371" height="88" fill="white"/>
</clipPath>
<clipPath id="clip1_8_216">
<rect width="369.967" height="88.1223" fill="white" transform="translate(0.516541 -0.0611572)"/>
</clipPath>
<clipPath id="clip2_8_216">
<rect width="369.967" height="88.1223" fill="white" transform="translate(0.516541 -0.0611572)"/>
</clipPath>
<clipPath id="clip3_8_216">
<rect width="369.967" height="88.1223" fill="white" transform="translate(0.516541 -0.0611572)"/>
</clipPath>
<clipPath id="clip4_8_216">
<rect width="212.377" height="73.6228" fill="white" transform="translate(158.107 7.1886)"/>
</clipPath>
<clipPath id="clip5_8_216">
<rect width="212.377" height="73.6228" fill="white" transform="translate(158.107 7.1886)"/>
</clipPath>
<clipPath id="clip6_8_216">
<rect width="212.377" height="73.6228" fill="white" transform="translate(158.107 7.1886)"/>
</clipPath>
<clipPath id="clip7_8_216">
<rect width="212.377" height="73.6228" fill="white" transform="translate(158.107 7.1886)"/>
</clipPath>
<clipPath id="clip8_8_216">
<rect width="131.249" height="88.1223" fill="white" transform="translate(0.516541 -0.0611572)"/>
</clipPath>
<clipPath id="clip9_8_216">
<rect width="131.249" height="88.1223" fill="white" transform="translate(0.516541 -0.0611572)"/>
</clipPath>
</defs>
</svg>
