<svg width="29" height="29" viewBox="0 0 29 29" fill="none" xmlns="http://www.w3.org/2000/svg">
<path d="M21.3553 7.16797C20.7369 6.73608 19.8856 6.88712 19.4535 7.50535L13.2006 16.4534C12.3842 17.6217 10.7753 17.9069 9.60704 17.0904L8.61531 16.3973C8.02922 15.9877 7.224 16.1159 6.7941 16.6873V16.6873C6.3458 17.2831 6.47601 18.1312 7.08241 18.5651L11.7229 21.8853C12.0932 22.1502 12.6085 22.0618 12.8693 21.6886L13.0619 21.4131C13.0629 21.4117 13.0644 21.4107 13.066 21.4104V21.4104C13.0677 21.4101 13.0692 21.4092 13.0702 21.4078L21.6927 9.07014C22.1249 8.45172 21.9738 7.60001 21.3553 7.16797V7.16797Z" fill="#41AD49"/>
</svg>
