<svg width="45" height="45" viewBox="0 0 45 45" fill="none" xmlns="http://www.w3.org/2000/svg">
<path d="M22.5 35C29.3951 35 35 29.3951 35 22.5C35 15.6049 29.3951 10 22.5 10C15.6049 10 10 15.6049 10 22.5C10 29.3951 15.6049 35 22.5 35Z" stroke="#FFEC86" stroke-width="2"/>
<path d="M30.538 16.4888C30.0045 15.9556 29.1399 15.9557 28.6066 16.4891L20.8879 24.2084C19.8802 25.2163 18.2461 25.2163 17.2383 24.2085L16.3828 23.353C15.8772 22.8474 15.0619 22.8331 14.5389 23.3206C13.9935 23.829 13.9737 24.6868 14.4951 25.2199L18.4849 29.299C18.8032 29.6245 19.3261 29.6274 19.648 29.3055L19.8857 29.0678C19.8869 29.0666 19.8885 29.0659 19.8903 29.0659C19.892 29.0659 19.8936 29.0652 19.8948 29.064L30.5382 18.4206C31.0717 17.8871 31.0716 17.0221 30.538 16.4888Z" fill="#FFEC86"/>
</svg>
