<svg width="27" height="27" viewBox="0 0 27 27" fill="none" xmlns="http://www.w3.org/2000/svg">
<path d="M13.5 26C20.3951 26 26 20.3951 26 13.5C26 6.60492 20.3951 1 13.5 1C6.60492 1 1 6.60492 1 13.5C1 20.3951 6.60492 26 13.5 26Z" stroke="#41AD49" stroke-width="2"/>
<path d="M21.538 7.48879C21.0045 6.95561 20.1399 6.95574 19.6066 7.48908L11.8879 15.2084C10.8802 16.2163 9.24614 16.2164 8.23832 15.2085L7.38277 14.353C6.87717 13.8474 6.06193 13.8331 5.53891 14.3207V14.3207C4.9935 14.8291 4.9737 15.6869 5.49507 16.2199L9.48486 20.2991C9.80321 20.6246 10.3261 20.6275 10.648 20.3055L10.8857 20.0678C10.8869 20.0666 10.8885 20.0659 10.8903 20.0659V20.0659C10.892 20.0659 10.8936 20.0653 10.8948 20.064L21.5382 9.42064C22.0717 8.88715 22.0716 8.02214 21.538 7.48879V7.48879Z" fill="#41AD49"/>
</svg>
