<svg xmlns="http://www.w3.org/2000/svg" version="1.1" xmlns:xlink="http://www.w3.org/1999/xlink" xmlns:svgjs="http://svgjs.dev/svgjs" width="1000" height="1000" viewBox="0 0 1000 1000"><rect width="1000" height="1000" fill="#000000"></rect><g transform="matrix(0.7,0,0,0.7,149.57575757575756,417.1652850874895)"><svg viewBox="0 0 396 94" data-background-color="#831919" preserveAspectRatio="xMidYMid meet" height="237" width="1000" xmlns="http://www.w3.org/2000/svg" xmlns:xlink="http://www.w3.org/1999/xlink"><g id="tight-bounds" transform="matrix(1,0,0,1,0.2400000000000091,-0.06532126717306141)"><svg viewBox="0 0 395.52 94.13064253434611" height="94.13064253434611" width="395.52"><g><svg viewBox="0 0 395.52 94.13064253434611" height="94.13064253434611" width="395.52"><g><svg viewBox="0 0 689.0074550201898 163.9783435780872" height="94.13064253434611" width="395.52"><g><rect width="5.741246414740344" height="137.68254278728605" x="259.4608008762836" y="13.147900395400569" fill="#ffffff" opacity="1" stroke-width="0" stroke="transparent" fill-opacity="1" class="rect-rb-0" data-fill-palette-color="primary" rx="1%" id="rb-0" data-palette-color="#ffffff"></rect></g><g><rect width="5.741246414740344" height="137.68254278728605" x="272.7167677291657" y="13.147900395400569" fill="#ffffff" opacity="1" stroke-width="0" stroke="transparent" fill-opacity="1" class="rect-rb-1" data-fill-palette-color="primary" rx="1%" id="rb-1" data-palette-color="#ffffff"></rect></g><g transform="matrix(1,0,0,1,293.48745502018966,13.49039428293112)"><svg viewBox="0 0 395.52 136.99755501222495" height="136.99755501222495" width="395.52"><g><svg viewBox="0 0 395.52 136.99755501222495" height="136.99755501222495" width="395.52"><g><svg viewBox="0 0 395.52 136.99755501222495" height="136.99755501222495" width="395.52"><g transform="matrix(1,0,0,1,0,0)"><svg width="395.52" viewBox="2.25 -39 245.39999999999995 81.5" height="136.99755501222495" data-palette-color="#ffffff"><svg></svg><svg></svg><g class="undefined-text-0" data-fill-palette-color="primary" id="text-0"><path d="M38.5-30.55v22.6c0 1.267 0.067 2.29 0.2 3.07 0.133 0.787 0.393 1.387 0.78 1.8 0.38 0.42 0.93 0.713 1.65 0.88 0.713 0.167 1.653 0.267 2.82 0.3v0 1.9h-16.2v-1.9c1.167-0.033 2.11-0.133 2.83-0.3 0.713-0.167 1.27-0.45 1.67-0.85 0.4-0.4 0.667-0.967 0.8-1.7 0.133-0.733 0.2-1.683 0.2-2.85v0-10.85h-20.25v10.5c0 1.267 0.067 2.29 0.2 3.07 0.133 0.787 0.393 1.387 0.78 1.8 0.38 0.42 0.93 0.713 1.65 0.88 0.713 0.167 1.653 0.267 2.82 0.3v0 1.9h-16.2v-1.9c1.167-0.033 2.11-0.133 2.83-0.3 0.713-0.167 1.27-0.45 1.67-0.85 0.4-0.4 0.667-0.967 0.8-1.7 0.133-0.733 0.2-1.683 0.2-2.85v0-23.3c0-1.167-0.057-2.11-0.17-2.83-0.12-0.713-0.353-1.28-0.7-1.7-0.353-0.413-0.863-0.693-1.53-0.84-0.667-0.153-1.533-0.263-2.6-0.33v0-1.9h15.2v1.9c-1.067 0.033-1.923 0.133-2.57 0.3-0.653 0.167-1.153 0.467-1.5 0.9-0.353 0.433-0.587 1.033-0.7 1.8-0.12 0.767-0.18 1.783-0.18 3.05v0 9.6h20.25v-9.95c0-1.167-0.057-2.11-0.17-2.83-0.12-0.713-0.353-1.28-0.7-1.7-0.353-0.413-0.863-0.693-1.53-0.84-0.667-0.153-1.533-0.263-2.6-0.33v0-1.9h15.2v1.9c-1.067 0.033-1.923 0.133-2.57 0.3-0.653 0.167-1.153 0.467-1.5 0.9-0.353 0.433-0.587 1.033-0.7 1.8-0.12 0.767-0.18 1.783-0.18 3.05zM69.2-39v0c2.933 0 5.667 0.517 8.2 1.55 2.533 1.033 4.733 2.45 6.6 4.25 1.867 1.8 3.333 3.917 4.4 6.35 1.067 2.433 1.6 5.067 1.6 7.9v0c0 2.7-0.54 5.233-1.62 7.6-1.087 2.367-2.563 4.423-4.43 6.17-1.867 1.753-4.067 3.137-6.6 4.15-2.533 1.02-5.25 1.53-8.15 1.53v0c-2.9 0-5.617-0.51-8.15-1.53-2.533-1.013-4.733-2.397-6.6-4.15-1.867-1.747-3.343-3.803-4.43-6.17-1.08-2.367-1.62-4.9-1.62-7.6v0c0-2.833 0.533-5.467 1.6-7.9 1.067-2.433 2.533-4.55 4.4-6.35 1.867-1.8 4.067-3.217 6.6-4.25 2.533-1.033 5.267-1.55 8.2-1.55zM69.2-2.25v0c2.2 0 4.177-0.383 5.93-1.15 1.747-0.767 3.247-1.867 4.5-3.3 1.247-1.433 2.203-3.177 2.87-5.23 0.667-2.047 1-4.337 1-6.87v0c0-2.667-0.333-5.077-1-7.23-0.667-2.147-1.617-3.98-2.85-5.5-1.233-1.513-2.733-2.677-4.5-3.49-1.767-0.82-3.75-1.23-5.95-1.23v0c-2.2 0-4.183 0.41-5.95 1.23-1.767 0.813-3.267 1.977-4.5 3.49-1.233 1.52-2.183 3.353-2.85 5.5-0.667 2.153-1 4.563-1 7.23v0c0 2.533 0.333 4.823 1 6.87 0.667 2.053 1.617 3.797 2.85 5.23 1.233 1.433 2.733 2.533 4.5 3.3 1.767 0.767 3.75 1.15 5.95 1.15zM119.5-8.95h0.2l13-29.55h11.2v1.9c-1.067 0.033-1.927 0.167-2.58 0.4-0.647 0.233-1.147 0.627-1.5 1.18-0.347 0.547-0.577 1.303-0.69 2.27-0.12 0.967-0.18 2.2-0.18 3.7v0 19.6c0 1.667 0.067 2.983 0.2 3.95 0.133 0.967 0.39 1.717 0.77 2.25 0.387 0.533 0.937 0.883 1.65 1.05 0.72 0.167 1.663 0.267 2.83 0.3v0 1.9h-16.2v-1.9c1.167-0.033 2.107-0.143 2.82-0.33 0.72-0.18 1.28-0.52 1.68-1.02 0.4-0.5 0.667-1.21 0.8-2.13 0.133-0.913 0.2-2.153 0.2-3.72v0-23.2h-0.5l-14.6 32.8h-1.1l-14.35-32.8h-0.2v22.85c0 1.667 0.067 2.983 0.2 3.95 0.133 0.967 0.39 1.717 0.77 2.25 0.387 0.533 0.937 0.883 1.65 1.05 0.72 0.167 1.663 0.267 2.83 0.3v0 1.9h-13.95v-1.9c1.167-0.033 2.107-0.143 2.82-0.33 0.72-0.18 1.28-0.52 1.68-1.02 0.4-0.5 0.667-1.21 0.8-2.13 0.133-0.913 0.2-2.153 0.2-3.72v0-20.3c0-1.4-0.06-2.56-0.18-3.48-0.113-0.913-0.347-1.637-0.7-2.17-0.347-0.533-0.853-0.91-1.52-1.13-0.667-0.213-1.533-0.353-2.6-0.42v0-1.9h11.95zM159.7-35.5v14.35c1.8 0 3.307-0.11 4.52-0.33 1.22-0.213 2.19-0.553 2.91-1.02 0.713-0.467 1.227-1.067 1.54-1.8 0.32-0.733 0.48-1.6 0.48-2.6v0h1.75v13.65h-1.75c0-1-0.143-1.867-0.43-2.6-0.28-0.733-0.78-1.343-1.5-1.83-0.713-0.48-1.68-0.847-2.9-1.1-1.213-0.247-2.753-0.37-4.62-0.37v0 11.3c0 1.1 0.133 2.007 0.4 2.72 0.267 0.72 0.723 1.303 1.37 1.75 0.653 0.453 1.513 0.77 2.58 0.95 1.067 0.187 2.383 0.28 3.95 0.28v0c1.767 0 3.267-0.127 4.5-0.38 1.233-0.247 2.267-0.67 3.1-1.27 0.833-0.6 1.5-1.393 2-2.38 0.5-0.98 0.917-2.203 1.25-3.67v0h1.9l-0.75 9.85h-31.05v-1.9c1.167-0.033 2.107-0.133 2.82-0.3 0.72-0.167 1.28-0.45 1.68-0.85 0.4-0.4 0.667-0.967 0.8-1.7 0.133-0.733 0.2-1.683 0.2-2.85v0-23.3c0-1.167-0.06-2.11-0.18-2.83-0.113-0.713-0.347-1.28-0.7-1.7-0.347-0.413-0.853-0.693-1.52-0.84-0.667-0.153-1.533-0.263-2.6-0.33v0-1.9h28.9l0.45 8.8h-1.75c-0.2-1.333-0.527-2.427-0.98-3.28-0.447-0.847-1.063-1.52-1.85-2.02-0.78-0.5-1.77-0.85-2.97-1.05-1.2-0.2-2.65-0.3-4.35-0.3v0h-6.35c-0.567 0-0.85 0.283-0.85 0.85z" fill="#ffffff" fill-rule="nonzero" stroke="none" stroke-width="1" stroke-linecap="butt" stroke-linejoin="miter" stroke-miterlimit="10" stroke-dasharray="" stroke-dashoffset="0" font-family="none" font-weight="none" font-size="none" text-anchor="none" style="mix-blend-mode: normal" data-fill-palette-color="primary" opacity="1"></path><path transform="translate(0,42.5)" d="M35.3-9.85l-0.75 9.85h-32.3v-1.9c1.167-0.033 2.11-0.133 2.83-0.3 0.713-0.167 1.27-0.45 1.67-0.85 0.4-0.4 0.667-0.967 0.8-1.7 0.133-0.733 0.2-1.683 0.2-2.85v0-23.3c0-1.167-0.057-2.11-0.17-2.83-0.12-0.713-0.353-1.28-0.7-1.7-0.353-0.413-0.863-0.693-1.53-0.84-0.667-0.153-1.533-0.263-2.6-0.33v0-1.9h15.2v1.9c-1.067 0.033-1.923 0.133-2.57 0.3-0.653 0.167-1.153 0.467-1.5 0.9-0.353 0.433-0.587 1.033-0.7 1.8-0.12 0.767-0.18 1.783-0.18 3.05v0 21.55c0 1.4 0.143 2.54 0.43 3.42 0.28 0.887 0.763 1.57 1.45 2.05 0.68 0.487 1.587 0.82 2.72 1 1.133 0.187 2.567 0.28 4.3 0.28v0c1.9 0 3.5-0.11 4.8-0.33 1.3-0.213 2.393-0.597 3.28-1.15 0.88-0.547 1.58-1.313 2.1-2.3 0.513-0.98 0.953-2.253 1.32-3.82v0zM49.35-29.05v19.6c0 1.667 0.067 2.983 0.2 3.95 0.133 0.967 0.393 1.717 0.78 2.25 0.38 0.533 0.93 0.883 1.65 1.05 0.713 0.167 1.653 0.267 2.82 0.3v0 1.9h-16.2v-1.9c1.167-0.033 2.11-0.143 2.83-0.33 0.713-0.18 1.27-0.52 1.67-1.02 0.4-0.5 0.667-1.21 0.8-2.13 0.133-0.913 0.2-2.153 0.2-3.72v0-20.3c0-1.4-0.057-2.56-0.17-3.48-0.12-0.913-0.353-1.637-0.7-2.17-0.353-0.533-0.863-0.91-1.53-1.13-0.667-0.213-1.533-0.353-2.6-0.42v0-1.9h15.2v1.9c-1.067 0.033-1.923 0.167-2.57 0.4-0.653 0.233-1.153 0.627-1.5 1.18-0.353 0.547-0.587 1.303-0.7 2.27-0.12 0.967-0.18 2.2-0.18 3.7zM77 0h-18v-1.9c1.3-0.033 2.343-0.133 3.13-0.3 0.78-0.167 1.38-0.45 1.8-0.85 0.413-0.4 0.697-0.967 0.85-1.7 0.147-0.733 0.22-1.683 0.22-2.85v0-23.3c0-1.167-0.057-2.11-0.17-2.83-0.12-0.713-0.353-1.28-0.7-1.7-0.353-0.413-0.863-0.693-1.53-0.84-0.667-0.153-1.533-0.263-2.6-0.33v0-1.9h14.95c4.5 0 8 0.8 10.5 2.4 2.5 1.6 3.75 3.85 3.75 6.75v0c0 2.2-0.69 4-2.07 5.4-1.387 1.4-3.58 2.55-6.58 3.45v0 0.2c1.033 0.1 1.933 0.217 2.7 0.35 0.767 0.133 1.45 0.29 2.05 0.47 0.6 0.187 1.157 0.413 1.67 0.68 0.52 0.267 1.03 0.567 1.53 0.9v0c2.967 2.1 4.45 4.733 4.45 7.9v0c0 1.767-0.493 3.407-1.48 4.92-0.98 1.52-2.353 2.713-4.12 3.58v0c-0.567 0.3-1.15 0.54-1.75 0.72-0.6 0.187-1.3 0.337-2.1 0.45-0.8 0.12-1.727 0.203-2.78 0.25-1.047 0.053-2.287 0.08-3.72 0.08zM77.15-2.15v0c6.033 0 9.05-2.583 9.05-7.75v0c0-3.767-1.55-6.4-4.65-7.9v0c-0.533-0.233-1.05-0.433-1.55-0.6-0.5-0.167-1.083-0.293-1.75-0.38-0.667-0.08-1.457-0.137-2.37-0.17-0.92-0.033-2.047-0.05-3.38-0.05v0h-2.25v11.15c0 2.033 0.533 3.49 1.6 4.37 1.067 0.887 2.833 1.33 5.3 1.33zM70.25-21.5h2.8c1.033 0 1.9-0.017 2.6-0.05 0.7-0.033 1.3-0.093 1.8-0.18 0.5-0.08 0.943-0.197 1.33-0.35 0.38-0.147 0.77-0.353 1.17-0.62v0c1.067-0.667 1.823-1.467 2.27-2.4 0.453-0.933 0.68-2.15 0.68-3.65v0c0-2.633-0.643-4.527-1.93-5.68-1.28-1.147-3.287-1.72-6.02-1.72v0h-3.85c-0.567 0-0.85 0.283-0.85 0.85v0zM128.05-28.85v0c0 2.667-0.8 4.883-2.4 6.65-1.6 1.767-4.15 2.95-7.65 3.55v0l11.05 13.3c0.9 1.1 1.893 1.89 2.98 2.37 1.08 0.487 2.37 0.847 3.87 1.08v0 1.9h-9.65l-12.25-15.7c-0.433-0.567-0.84-1.017-1.22-1.35-0.387-0.333-0.787-0.59-1.2-0.77-0.42-0.187-0.903-0.307-1.45-0.36-0.553-0.047-1.213-0.07-1.98-0.07v0 10.4c0 1.233 0.077 2.24 0.23 3.02 0.147 0.787 0.463 1.397 0.95 1.83 0.48 0.433 1.18 0.723 2.1 0.87 0.913 0.153 2.12 0.23 3.62 0.23v0 1.9h-17.65v-1.9c1.167-0.033 2.11-0.133 2.83-0.3 0.713-0.167 1.27-0.45 1.67-0.85 0.4-0.4 0.667-0.967 0.8-1.7 0.133-0.733 0.2-1.683 0.2-2.85v0-23.3c0-1.167-0.057-2.11-0.17-2.83-0.12-0.713-0.353-1.28-0.7-1.7-0.353-0.413-0.863-0.693-1.53-0.84-0.667-0.153-1.533-0.263-2.6-0.33v0-1.9h15.7c4.6 0 8.16 0.85 10.68 2.55 2.513 1.7 3.77 4.067 3.77 7.1zM108.15-35.3v14.55h3.55c3.333 0 5.81-0.61 7.43-1.83 1.613-1.213 2.42-3.22 2.42-6.02v0c0-2.7-0.64-4.633-1.92-5.8-1.287-1.167-3.297-1.75-6.03-1.75v0h-4.6c-0.567 0-0.85 0.283-0.85 0.85zM161-8.55l-2.05-5.4h-13.35c-0.567 1.367-1.05 2.573-1.45 3.62-0.4 1.053-0.723 1.963-0.97 2.73-0.253 0.767-0.43 1.417-0.53 1.95-0.1 0.533-0.15 0.967-0.15 1.3v0c0 0.933 0.3 1.573 0.9 1.92 0.6 0.353 1.6 0.53 3 0.53v0 1.9h-12.15v-1.9c0.767-0.1 1.427-0.233 1.98-0.4 0.547-0.167 1.03-0.4 1.45-0.7 0.413-0.3 0.78-0.69 1.1-1.17 0.313-0.487 0.62-1.08 0.92-1.78v0l13-32.55h2.15l11.35 28.2c0.767 1.867 1.433 3.357 2 4.47 0.567 1.12 1.117 1.963 1.65 2.53 0.533 0.567 1.11 0.933 1.73 1.1 0.613 0.167 1.353 0.25 2.22 0.25v0 1.95h-16.3v-1.95c1.767 0 2.983-0.167 3.65-0.5 0.667-0.333 1-0.883 1-1.65v0c0-0.333-0.017-0.643-0.05-0.93-0.033-0.28-0.09-0.587-0.17-0.92-0.087-0.333-0.203-0.71-0.35-1.13-0.153-0.413-0.347-0.903-0.58-1.47zM152.45-31.2l-5.85 14.75h11.4zM206.05-28.85v0c0 2.667-0.8 4.883-2.4 6.65-1.6 1.767-4.15 2.95-7.65 3.55v0l11.05 13.3c0.9 1.1 1.893 1.89 2.98 2.37 1.08 0.487 2.37 0.847 3.87 1.08v0 1.9h-9.65l-12.25-15.7c-0.433-0.567-0.84-1.017-1.22-1.35-0.387-0.333-0.787-0.59-1.2-0.77-0.42-0.187-0.903-0.307-1.45-0.36-0.553-0.047-1.213-0.07-1.98-0.07v0 10.4c0 1.233 0.077 2.24 0.23 3.02 0.147 0.787 0.463 1.397 0.95 1.83 0.48 0.433 1.18 0.723 2.1 0.87 0.913 0.153 2.12 0.23 3.62 0.23v0 1.9h-17.65v-1.9c1.167-0.033 2.107-0.133 2.82-0.3 0.72-0.167 1.28-0.45 1.68-0.85 0.4-0.4 0.667-0.967 0.8-1.7 0.133-0.733 0.2-1.683 0.2-2.85v0-23.3c0-1.167-0.06-2.11-0.18-2.83-0.113-0.713-0.343-1.28-0.69-1.7-0.353-0.413-0.863-0.693-1.53-0.84-0.667-0.153-1.533-0.263-2.6-0.33v0-1.9h15.7c4.6 0 8.16 0.85 10.68 2.55 2.513 1.7 3.77 4.067 3.77 7.1zM186.15-35.3v14.55h3.55c3.333 0 5.81-0.61 7.43-1.83 1.613-1.213 2.42-3.22 2.42-6.02v0c0-2.7-0.64-4.633-1.92-5.8-1.287-1.167-3.297-1.75-6.03-1.75v0h-4.6c-0.567 0-0.85 0.283-0.85 0.85zM226.5-15.2l-10-17.1c-0.5-0.867-0.967-1.577-1.4-2.13-0.433-0.547-0.873-0.987-1.32-1.32-0.453-0.333-0.93-0.56-1.43-0.68-0.5-0.113-1.1-0.17-1.8-0.17v0-1.9h15.75v1.9c-1.667 0-2.84 0.123-3.52 0.37-0.687 0.253-1.03 0.697-1.03 1.33v0c0 0.7 0.383 1.7 1.15 3v0l7.75 13.25h0.2l5.65-9.5c1.067-1.8 1.827-3.217 2.28-4.25 0.447-1.033 0.67-1.867 0.67-2.5v0c0-0.633-0.24-1.077-0.72-1.33-0.487-0.247-1.33-0.37-2.53-0.37v0-1.9h11.45v1.9c-0.7 0-1.323 0.1-1.87 0.3-0.553 0.2-1.13 0.6-1.73 1.2-0.6 0.6-1.257 1.433-1.97 2.5-0.72 1.067-1.597 2.467-2.63 4.2v0l-7.7 13v5.95c0 1.633 0.06 2.94 0.18 3.92 0.113 0.987 0.363 1.747 0.75 2.28 0.38 0.533 0.93 0.89 1.65 1.07 0.713 0.187 1.67 0.28 2.87 0.28v0 1.9h-16.2v-1.9c1.2 0 2.16-0.093 2.88-0.28 0.713-0.18 1.263-0.53 1.65-1.05 0.38-0.513 0.637-1.237 0.77-2.17 0.133-0.933 0.2-2.167 0.2-3.7v0z" fill="#ffffff" fill-rule="nonzero" stroke="none" stroke-width="1" stroke-linecap="butt" stroke-linejoin="miter" stroke-miterlimit="10" stroke-dasharray="" stroke-dashoffset="0" font-family="none" font-weight="none" font-size="none" text-anchor="none" style="mix-blend-mode: normal" data-fill-palette-color="primary" opacity="1"></path></g></svg></g></svg></g></svg></g></svg></g><g><svg viewBox="0 0 244.43135999999998 163.9783435780872" height="163.9783435780872" width="244.43135999999998"><g><svg xmlns="http://www.w3.org/2000/svg" xmlns:xlink="http://www.w3.org/1999/xlink" version="1.1" x="0" y="0" viewBox="3.995 20.607000000000003 93.005 62.393" enable-background="new 0 0 100 100" xml:space="preserve" height="163.9783435780872" width="244.43135999999998" class="icon-icon-0" data-fill-palette-color="accent" id="icon-0"><g fill="#ffffff" data-fill-palette-color="accent"><g fill="#ffffff" data-fill-palette-color="accent"><path d="M77.313 20.937c-2.51-0.195-5.222-0.33-7.921-0.33-10.041 0-16.38 1.818-18.895 5.409-2.514-3.591-8.853-5.409-18.895-5.409-2.699 0-5.411 0.135-7.921 0.33v-0.009c-0.116 0.013-0.238 0.02-0.363 0.021-0.199 0.035-0.405 0.06-0.628 0.06-0.023 0-0.045-0.002-0.068-0.004-0.21 0.037-0.43 0.06-0.665 0.06-0.07 0-0.137-0.006-0.204-0.01-0.136 0.025-0.277 0.042-0.422 0.053-0.154 0.03-0.316 0.048-0.484 0.058v0.022c-5.092 0.505-8.808 1.158-8.868 1.169l-0.326 0.058-0.9 1.116H3.995V83l0.94-0.059c0.153-0.01 15.427-0.967 21.411-1.633l0.289-0.033c6.042-0.671 13.564-1.51 16.788 1.114l0.244 0.199h13.658l0.245-0.199c3.27-2.661 11.225-1.75 17.033-1.085l0.041 0.003c5.984 0.686 21.261 1.624 21.415 1.634L97 82.999V23.531h-6.756l-0.902-1.116-0.326-0.058c-0.06-0.012-3.776-0.664-8.869-1.169M9.22 28.248l2.205-2.731v46.195L9.22 75.389V28.248zM48.039 77.234c-0.555-0.188-6.461-2.119-14.894-2.119-2.742 0-5.474 0.21-8.119 0.623-8.626 1.347-13.231 1.617-15.349 1.643l2.742-4.571 0.009 0.016c0.046-0.02 4.729-2.076 20.337-2.114 10.021-0.024 14.288 4.07 15.999 6.714L48.039 77.234zM49.612 76.161c-2.095-2.925-6.767-6.867-16.759-6.867h-0.091c-12.153 0.03-17.827 1.27-19.919 1.894V24.008c2.188-0.357 10.539-1.63 18.759-1.63 10.352 0 16.57 1.976 18.01 5.714V76.161zM51.383 28.092c1.438-3.738 7.658-5.714 18.009-5.714 8.221 0 16.573 1.273 18.761 1.63v47.166c-2.151-0.61-7.833-1.791-19.834-1.879-0.101-0.001-0.197-0.002-0.297-0.002-10.104 0-14.643 3.796-16.639 6.713V28.092zM75.968 75.738c-2.646-0.413-5.377-0.623-8.118-0.623-8.433 0-14.34 1.932-14.894 2.119l-0.774 0.202c1.571-2.642 5.705-6.81 16.126-6.725 14.363 0.105 19.537 1.816 20.26 2.085l2.751 4.584C89.191 77.353 84.597 77.085 75.968 75.738zM91.775 75.389l-2.206-3.677V25.517l2.206 2.731V75.389z" fill="#ffffff" data-fill-palette-color="accent"></path><g fill="#ffffff" data-fill-palette-color="accent"><g fill="#ffffff" data-fill-palette-color="accent"><path d="M46.551 32.671c-7.224-5.899-29.768-1.906-29.994-1.865l-0.225-1.423c0.95-0.172 23.352-4.136 31.034 2.141L46.551 32.671 46.551 32.671z" fill="#ffffff" data-fill-palette-color="accent"></path></g><g fill="#ffffff" data-fill-palette-color="accent"><path d="M46.551 35.842c-7.224-5.899-29.768-1.906-29.994-1.865l-0.225-1.423c0.95-0.172 23.352-4.135 31.034 2.141L46.551 35.842 46.551 35.842z" fill="#ffffff" data-fill-palette-color="accent"></path></g><g fill="#ffffff" data-fill-palette-color="accent"><path d="M46.551 39.013c-7.224-5.9-29.768-1.906-29.994-1.866l-0.225-1.423c0.95-0.172 23.352-4.135 31.034 2.141L46.551 39.013 46.551 39.013z" fill="#ffffff" data-fill-palette-color="accent"></path></g><g fill="#ffffff" data-fill-palette-color="accent"><path d="M46.551 42.184c-7.224-5.9-29.768-1.907-29.994-1.866l-0.225-1.423c0.95-0.172 23.352-4.135 31.034 2.141L46.551 42.184 46.551 42.184z" fill="#ffffff" data-fill-palette-color="accent"></path></g><g fill="#ffffff" data-fill-palette-color="accent"><path d="M46.551 45.354c-7.224-5.899-29.768-1.906-29.994-1.866l-0.225-1.423c0.95-0.172 23.352-4.135 31.034 2.141L46.551 45.354 46.551 45.354z" fill="#ffffff" data-fill-palette-color="accent"></path></g><g fill="#ffffff" data-fill-palette-color="accent"><path d="M46.551 48.525c-7.224-5.899-29.768-1.906-29.994-1.866l-0.225-1.423c0.95-0.172 23.352-4.135 31.034 2.141L46.551 48.525 46.551 48.525z" fill="#ffffff" data-fill-palette-color="accent"></path></g><g fill="#ffffff" data-fill-palette-color="accent"><path d="M46.551 51.696c-7.224-5.9-29.768-1.906-29.994-1.866l-0.225-1.423c0.95-0.171 23.352-4.134 31.034 2.142L46.551 51.696 46.551 51.696z" fill="#ffffff" data-fill-palette-color="accent"></path></g><g fill="#ffffff" data-fill-palette-color="accent"><path d="M46.551 54.867c-7.224-5.9-29.768-1.907-29.994-1.866l-0.225-1.423c0.95-0.172 23.352-4.134 31.034 2.142L46.551 54.867 46.551 54.867z" fill="#ffffff" data-fill-palette-color="accent"></path></g><g fill="#ffffff" data-fill-palette-color="accent"><path d="M46.551 58.038c-7.224-5.9-29.768-1.906-29.994-1.866l-0.225-1.423c0.95-0.172 23.352-4.134 31.034 2.142L46.551 58.038 46.551 58.038z" fill="#ffffff" data-fill-palette-color="accent"></path></g><g fill="#ffffff" data-fill-palette-color="accent"><path d="M46.551 61.209c-7.224-5.9-29.768-1.907-29.994-1.866l-0.225-1.423c0.95-0.172 23.352-4.135 31.034 2.141L46.551 61.209 46.551 61.209z" fill="#ffffff" data-fill-palette-color="accent"></path></g><g fill="#ffffff" data-fill-palette-color="accent"><path d="M46.551 64.379c-7.224-5.898-29.768-1.906-29.994-1.865l-0.225-1.423c0.95-0.172 23.352-4.135 31.034 2.141L46.551 64.379 46.551 64.379z" fill="#ffffff" data-fill-palette-color="accent"></path></g><g fill="#ffffff" data-fill-palette-color="accent"><path d="M46.551 67.551c-7.224-5.9-29.768-1.906-29.994-1.866l-0.225-1.423c0.95-0.172 23.352-4.135 31.034 2.141L46.551 67.551 46.551 67.551z" fill="#ffffff" data-fill-palette-color="accent"></path></g></g><g fill="#ffffff" data-fill-palette-color="accent"><g fill="#ffffff" data-fill-palette-color="accent"><path d="M54.576 32.671c7.224-5.899 29.768-1.906 29.994-1.865l0.225-1.423c-0.95-0.172-23.352-4.136-31.034 2.141L54.576 32.671 54.576 32.671z" fill="#ffffff" data-fill-palette-color="accent"></path></g><g fill="#ffffff" data-fill-palette-color="accent"><path d="M54.576 35.842c7.224-5.899 29.768-1.906 29.994-1.865l0.225-1.423c-0.95-0.172-23.352-4.135-31.034 2.141L54.576 35.842 54.576 35.842z" fill="#ffffff" data-fill-palette-color="accent"></path></g><g fill="#ffffff" data-fill-palette-color="accent"><path d="M54.576 39.013c7.224-5.9 29.768-1.906 29.994-1.866l0.225-1.423c-0.95-0.172-23.352-4.135-31.034 2.141L54.576 39.013 54.576 39.013z" fill="#ffffff" data-fill-palette-color="accent"></path></g><g fill="#ffffff" data-fill-palette-color="accent"><path d="M54.576 42.184c7.224-5.9 29.768-1.907 29.994-1.866l0.225-1.423c-0.95-0.172-23.352-4.135-31.034 2.141L54.576 42.184 54.576 42.184z" fill="#ffffff" data-fill-palette-color="accent"></path></g><g fill="#ffffff" data-fill-palette-color="accent"><path d="M54.576 45.354c7.224-5.899 29.768-1.906 29.994-1.866l0.225-1.423c-0.95-0.172-23.352-4.135-31.034 2.141L54.576 45.354 54.576 45.354z" fill="#ffffff" data-fill-palette-color="accent"></path></g><g fill="#ffffff" data-fill-palette-color="accent"><path d="M54.576 48.525C61.8 42.626 84.344 46.62 84.57 46.66l0.225-1.423c-0.95-0.172-23.352-4.135-31.034 2.141L54.576 48.525 54.576 48.525z" fill="#ffffff" data-fill-palette-color="accent"></path></g><g fill="#ffffff" data-fill-palette-color="accent"><path d="M54.576 51.696c7.224-5.9 29.768-1.906 29.994-1.866l0.225-1.423c-0.95-0.171-23.352-4.134-31.034 2.142L54.576 51.696 54.576 51.696z" fill="#ffffff" data-fill-palette-color="accent"></path></g><g fill="#ffffff" data-fill-palette-color="accent"><path d="M54.576 54.867c7.224-5.9 29.768-1.907 29.994-1.866l0.225-1.423c-0.95-0.172-23.352-4.134-31.034 2.142L54.576 54.867 54.576 54.867z" fill="#ffffff" data-fill-palette-color="accent"></path></g><g fill="#ffffff" data-fill-palette-color="accent"><path d="M54.576 58.038c7.224-5.9 29.768-1.906 29.994-1.866l0.225-1.423c-0.95-0.172-23.352-4.134-31.034 2.142L54.576 58.038 54.576 58.038z" fill="#ffffff" data-fill-palette-color="accent"></path></g><g fill="#ffffff" data-fill-palette-color="accent"><path d="M54.576 61.209c7.224-5.9 29.768-1.907 29.994-1.866l0.225-1.423c-0.95-0.172-23.352-4.135-31.034 2.141L54.576 61.209 54.576 61.209z" fill="#ffffff" data-fill-palette-color="accent"></path></g><g fill="#ffffff" data-fill-palette-color="accent"><path d="M54.576 64.379c7.224-5.898 29.768-1.906 29.994-1.865l0.225-1.423c-0.95-0.172-23.352-4.135-31.034 2.141L54.576 64.379 54.576 64.379z" fill="#ffffff" data-fill-palette-color="accent"></path></g><g fill="#ffffff" data-fill-palette-color="accent"><path d="M54.576 67.551c7.224-5.9 29.768-1.906 29.994-1.866l0.225-1.423c-0.95-0.172-23.352-4.135-31.034 2.141L54.576 67.551 54.576 67.551z" fill="#ffffff" data-fill-palette-color="accent"></path></g></g></g></g></svg><g></g></g></svg></g></svg></g></svg></g><defs></defs></svg><rect width="395.52" height="94.13064253434611" fill="none" stroke="none" visibility="hidden"></rect></g></svg></g></svg>